<?xml version="1.0" encoding="utf-8"?>
<!-- Generator: Adobe Illustrator 22.0.0, SVG Export Plug-In . SVG Version: 6.00 Build 0)  -->
<svg version="1.2" baseProfile="tiny" id="Layer_1" xmlns="http://www.w3.org/2000/svg" xmlns:xlink="http://www.w3.org/1999/xlink"
	 x="0px" y="0px" viewBox="0 0 1294 470" xml:space="preserve">
<path fill="none" d="M573,250.3h-37l42-60.8h-0.1L504,264.3h36.9l-38.3,57.6c0.2,0.1,0.3,0.1,0.5,0.1L573,250.3z"/>
<path fill="none" d="M123.5,91.5l-72.9,287c-0.4,1.6,0.3,2.9,0.7,3.4c0.4,0.6,1.5,1.5,3.2,1.5H870c-31.6-39.6-50.5-89.7-50.5-144.3
	c0-57.5,21-110.2,55.7-150.7H127.4C125.6,88.5,124,89.7,123.5,91.5z M729.2,188.1h12.7l9.1-34l45.2-15l-13.1,49h19l-5.6,20.9h-19
	L757,285.9c-0.6,2-0.9,3.8-0.9,5.2c0,3.3,1.5,5,4.4,5h12.7l-8.1,30.5h-22.2c-21.2,0-31.9-6.5-31.9-19.6c0-2.5,0.4-5.3,1.3-8.4
	l24-89.5h-12.7L729.2,188.1z M665.7,188.1l-26.2,97.8c-0.6,2.2-0.9,4-0.9,5.5c0,3.1,1.3,4.7,3.9,4.7h3.2c4.5,0,7.7-3.4,9.6-10.2
	l26.2-97.8h41.3l-36.2,135.2h-41.3l-19.9,3.2c-21.2,0-31.9-6.5-31.9-19.6c0-2.5,0.4-5.3,1.3-8.4l29.6-110.4L665.7,188.1L665.7,188.1
	z M551.3,184.9h15.6c2.3,0,5,0.1,8.1,0.4l44.7-45.3l-33,47.5c10.3,3.6,15.5,9.6,15.5,18.3c0,2.2-0.3,4.6-1,7.1l-23,85.7
	c-5,18.6-21.2,27.9-48.6,27.9h-15.9c-2.1,0-4.8-0.1-8-0.3L463,369.9l31-46.1c-10.1-3.6-15.1-9.7-15.1-18.2c0-2.2,0.3-4.6,1-7.1
	l23-85.7C507.8,194.2,524,184.9,551.3,184.9z M498.5,140.5l-48.9,182.8h-41.3l48.9-182.8L498.5,140.5L498.5,140.5z M431.5,140.5
	l-48.9,182.8h-41.3l48.9-182.8L431.5,140.5L431.5,140.5z M319.4,184.9c23.7,0,35.5,6.7,35.5,20.2c0,2.4-0.4,5-1.1,7.7L324,323.3
	h-38.1l-19.8,3.2c-23.4,0-35-6.7-35-20.1c0-2.4,0.4-5,1.1-7.9l7.6-28.6c4.4-16.5,19.3-24.8,44.7-24.8h19l5.5-19.7
	c0.5-2,0.8-3.7,0.8-5.1c0-3.4-1.5-5.1-4.4-5.1c-4.3,0-7.4,3.4-9.1,10.2l-4.2,15.2H251l7.5-27.9c5-18.6,21.1-27.9,48.2-27.9h12.7
	L319.4,184.9L319.4,184.9z M268.1,140.5L260,171h-47.6l-13.1,48.9h47.6l-8.1,30.5h-47.6l-19.6,73h-41.2l48.9-182.8L268.1,140.5
	L268.1,140.5z"/>
<path fill="none" d="M277.6,282.7l-0.8,3c-0.6,2.1-0.9,3.9-0.9,5.3c0,3.3,1.5,5,4.4,5h3.2c4,0,7-3.4,9.1-10.3l3.6-13.2h-9.5
	C282.5,272.5,279.5,275.9,277.6,282.7z"/>
<path fill="#F7E066" d="M870,383.5H54.5c-1.7,0-2.7-1-3.2-1.5c-0.4-0.6-1.1-1.8-0.7-3.4l72.9-287c0.5-1.8,2-3,3.9-3h747.8
	c6-7,12.5-13.7,19.3-20H127.4c-11,0-20.6,7.4-23.3,18.1l-72.9,287c-1.8,7.2-0.3,14.8,4.3,20.6c4.6,5.9,11.5,9.3,18.9,9.3h833.4
	C881.6,397.2,875.6,390.5,870,383.5z"/>
<polygon fill="#FFFFFF" points="171.6,323.3 191.2,250.3 238.8,250.3 246.9,219.8 199.3,219.8 212.4,171 260,171 268.1,140.5 
	179.2,140.5 130.4,323.3 "/>
<path fill="#FFFFFF" d="M258.3,212.9l-7.5,27.9H292l4.2-15.2c1.8-6.8,4.8-10.2,9.1-10.2c3,0,4.4,1.7,4.4,5.1c0,1.4-0.3,3-0.8,5.1
	l-5.5,19.7h-19c-25.4,0-40.3,8.3-44.7,24.8l-7.6,28.6c-0.8,2.9-1.1,5.5-1.1,7.9c0,13.4,11.7,20.1,35,20.1l19.8-3.2H324l29.8-110.4
	c0.8-2.8,1.1-5.4,1.1-7.7c0-13.5-11.9-20.2-35.5-20.2h-12.8C279.4,184.9,263.3,194.2,258.3,212.9z M292.7,285.7
	c-2.1,6.9-5.2,10.3-9.1,10.3h-3.2c-3,0-4.4-1.7-4.4-5c0-1.4,0.3-3.2,0.9-5.3l0.8-3c1.9-6.8,4.9-10.2,9.1-10.2h9.5L292.7,285.7z"/>
<polygon fill="#FFFFFF" points="382.6,323.3 431.5,140.5 390.2,140.5 341.4,323.3 "/>
<polygon fill="#FFFFFF" points="449.6,323.3 498.5,140.5 457.3,140.5 408.4,323.3 "/>
<path fill="#FFFFFF" d="M478.8,305.7c0,8.5,5,14.5,15.1,18.2l-31,46.1l42.8-43.7c3.2,0.2,5.9,0.3,8,0.3h15.9
	c27.4,0,43.6-9.3,48.6-27.9l23-85.7c0.7-2.5,1-4.9,1-7.1c0-8.6-5.2-14.7-15.5-18.3l33-47.5L575,185.4c-3.1-0.3-5.8-0.4-8.1-0.4
	h-15.6c-27.3,0-43.5,9.3-48.5,27.9l-23,85.7C479.2,301.1,478.8,303.5,478.8,305.7z M540.9,264.3H504l73.9-74.8h0.1l-42,60.8h37
	L503,322c-0.2,0-0.3,0-0.5-0.1L540.9,264.3z"/>
<path fill="#FFFFFF" d="M593.6,306.9c0,13,10.6,19.6,31.9,19.6l19.9-3.2h41.3l36.2-135.2h-41.3l-26.2,97.8
	c-1.9,6.8-5.2,10.2-9.6,10.2h-3.2c-2.6,0-3.9-1.6-3.9-4.7c0-1.4,0.3-3.3,0.9-5.5l26.2-97.8h-41.3l-29.6,110.4
	C594,301.6,593.6,304.4,593.6,306.9z"/>
<path fill="#FFFFFF" d="M712.3,298.6c-0.8,3-1.3,5.8-1.3,8.4c0,13,10.6,19.6,31.9,19.6h22.2l8.1-30.5h-12.7c-3,0-4.4-1.7-4.4-5
	c0-1.4,0.3-3.2,0.9-5.2l20.6-76.8h19l5.6-20.9h-19l13.1-49l-45.2,15l-9.1,34h-12.7l-5.6,20.9h12.7L712.3,298.6z"/>
<path fill="#F7E066" d="M1051.2,7.5L1051.2,7.5c-60.4,0-115.4,23.1-156.6,61c-6.8,6.3-13.3,13-19.3,20
	c-34.7,40.5-55.7,93.1-55.7,150.7c0,54.6,18.9,104.7,50.5,144.3c5.6,7,11.6,13.7,17.9,20c0.7,0.7,1.5,1.5,2.2,2.2
	c0.2,0.2,0.4,0.4,0.6,0.6c0.5,0.5,1,1,1.5,1.4c27.4,26.1,61.3,45.4,98.9,55.5V463c19.1,5.1,39.2,7.9,60,7.9
	c127.9,0,231.7-103.7,231.7-231.7S1179.1,7.5,1051.2,7.5z M1205.1,346.4l-45.7,45.6l-34-28.2l-37.9,15.5l-3.9,44.7h-64.1l-3.9-44.7
	l-37.9-15.5l-34,28.2L898,346.4l29.1-33l-16.5-37.9l-43.7-4.9v-64.1l43.7-3.9l16.5-37.9l-29.1-34L943.7,86l34,27.2l37.9-14.6
	l3.9-43.7h64.1l3.9,43.7l37.9,14.6l34-27.2l45.7,44.7l-28.2,34l15.5,37.9l43.7,3.9v64.1l-43.7,4.9l-15.5,37.9L1205.1,346.4z"/>
<path fill="#F7E066" d="M1001.7,145.4h-33l-23.9,148.8h33.6l1.7-10.3h10.2l1.7,10.3h33.6L1001.7,145.4z M1001.4,258l-6,0.1v6.6h-10
	l-0.4,0.1l-10,0.1V258l-6.1-0.1v6.9l-4.1-0.1v-16.1l6-4.3c-1.7-2.4-3-5.2-4-8.2l-1.6-10c0.1-6.5,2.7-12.3,7.7-17.7
	c3.6-3.8,7.7-6.8,12.4-9c4.9,2.1,9.1,5.1,12.7,9c4.9,5.3,7.4,11.1,7.4,17.6c0,3.6-0.5,6.9-1.5,10.2c-1,3.1-2.3,5.9-4.1,8.4l5.7,4
	l0.1,16.3l-4.1-0.1L1001.4,258z"/>
<path fill="#F7E066" d="M1110.5,216.7v-12.4c0-11.1-5.5-18.1-16.5-21.1c-4.1-1.1-8.9-1.7-14.5-1.7l-15.5,2.6h-33.6v110.1h33.6v-79.6
	c0-5.5,1.8-8.3,5.4-8.3h2.6c3.3,0,5,3.4,5,10.3h0.5L1110.5,216.7L1110.5,216.7z"/>
<path fill="#F7E066" d="M1108.4,181.6c-1.1,0-2.2,0-3.2,0.1c7.4,4.9,11.3,12.5,11.3,22.7v2.1h2.2c3.4,0,5.2,1.9,5.2,5.7v51.7
	c0,5.5-1.9,8.3-5.6,8.3h-2.6c-3.2,0-4.8-2.8-4.8-8.3l0.1-41h-0.6h-33.1V274c0,15.2,10.3,22.7,31,22.7l15.5,3.1
	c0,5.5-1.6,8.3-4.9,8.3h-21V333h28.4c20.7,0,31-7.6,31-22.7V184.1h-33.6L1108.4,181.6z"/>
</svg>
